<?xml version="1.0" encoding="UTF-8" standalone="no"?>
<!-- Created with Inkscape (http://www.inkscape.org/) -->

<svg
   xmlns:dc="http://purl.org/dc/elements/1.1/"
   xmlns:cc="http://creativecommons.org/ns#"
   xmlns:rdf="http://www.w3.org/1999/02/22-rdf-syntax-ns#"
   xmlns:svg="http://www.w3.org/2000/svg"
   xmlns="http://www.w3.org/2000/svg"
   xmlns:sodipodi="http://sodipodi.sourceforge.net/DTD/sodipodi-0.dtd"
   xmlns:inkscape="http://www.inkscape.org/namespaces/inkscape"
   width="203.74274mm"
   height="259.55624mm"
   viewBox="0 0 203.74274 259.55624"
   version="1.1"
   id="svg6363"
   inkscape:version="0.92.1 r15371"
   sodipodi:docname="rothko.svg">
  <defs
     id="defs6357" />
  <sodipodi:namedview
     id="base"
     pagecolor="#ffffff"
     bordercolor="#666666"
     borderopacity="1.0"
     inkscape:pageopacity="0.0"
     inkscape:pageshadow="2"
     inkscape:zoom="0.39017273"
     inkscape:cx="400.03229"
     inkscape:cy="491.08441"
     inkscape:document-units="mm"
     inkscape:current-layer="layer1"
     showgrid="false"
     fit-margin-top="0"
     fit-margin-left="0"
     fit-margin-right="0"
     fit-margin-bottom="0"
     inkscape:window-width="1920"
     inkscape:window-height="1016"
     inkscape:window-x="0"
     inkscape:window-y="27"
     inkscape:window-maximized="1" />
  <metadata
     id="metadata6360">
    <rdf:RDF>
      <cc:Work
         rdf:about="">
        <dc:format>image/svg+xml</dc:format>
        <dc:type
           rdf:resource="http://purl.org/dc/dcmitype/StillImage" />
        <dc:title></dc:title>
      </cc:Work>
    </rdf:RDF>
  </metadata>
  <g
     inkscape:label="Layer 1"
     inkscape:groupmode="layer"
     id="layer1"
     transform="translate(120.67219,-10.434674)">
    <path
       style="fill:#00a18d;fill-opacity:1;stroke-width:0.26458332"
       d="m 82.85378,233.21384 c 0.208141,-1.69233 0.208141,1.69233 0,0 z M -40.77297,180.1779 c -16.26935,-5.98422 -33.55852,0.48262 -50.24582,-1.745 -10.56978,5.30585 -25.43677,-0.63775 -21.54147,-13.54122 -6.46695,-13.94232 13.84183,-12.69706 22.19192,-11.11133 10.55601,2.4922 20.83413,-1.77938 31.47092,-1.24039 9.43936,0.13558 18.92407,-0.62766 28.20732,-1.8382 15.95687,1.43229 32.57076,5.79299 48.23085,0.24925 16.07993,0.60576 31.83399,8.32348 48.01943,4.42379 12.725237,-1.66225 13.551306,17.07983 2.81791,17.98953 -6.23327,10.12996 -19.4187,5.28114 -28.623,3.27369 -10.8104,-4.31873 -20.83452,2.14425 -31.55697,2.25643 -13.98992,0.816 -27.91021,-3.46475 -41.82317,-1.96596 -2.55394,0.63467 -4.99811,1.72809 -7.14792,3.24941 z"
       id="path7092-6"
       inkscape:connector-curvature="0"
       sodipodi:nodetypes="ccccccccccccccc" />
    <path
       style="fill:#30548e;fill-opacity:1;stroke-width:0.26458332"
       d="m -86.49559,264.96627 c 3.97607,-8.00348 -2.35708,-9.52584 -7.08412,-3.72541 -12.97117,8.03135 -26.57329,-8.99594 -20.03414,-21.42837 5.58134,-8.06134 2.05436,-17.74506 -2.88446,-25.07842 -6.72034,-9.54035 -3.27698,-26.23011 8.96441,-29.02349 9.74498,-2.01929 20.1421,1.5451 29.56636,-2.393 23.02376,2.40244 46.33275,3.01046 69.33166,0.54672 14.36409,1.43011 28.94279,0.58909 43.05506,-2.43957 11.12895,10.77578 34.26989,-3.97187 39.652154,13.81941 6.604843,15.35917 -0.565516,31.23026 -0.0042,46.56564 5.064226,11.37818 -2.043404,23.78363 -14.996814,18.37241 -11.20643,-1.85557 -19.6234,8.44886 -30.34029,2.06165 -12.28245,-3.42216 -25.4744,-5.02396 -37.7878,-0.90447 -13.58689,2.40963 -28.95577,4.5588 -41.23978,-3.33118 -8.99796,10.071 -24.33796,3.50669 -35.98658,6.93416 z"
       id="path7090-7"
       inkscape:connector-curvature="0"
       sodipodi:nodetypes="cccccccccccccccc" />
    <path
       style="fill:#a2f434;fill-opacity:1;stroke-width:0.26458332"
       d="m -27.31412,148.01801 c -17.7962,-6.1015 -36.67475,-1.48765 -54.96565,-1.99881 -11.33504,4.84557 -26.02307,-1.57908 -28.32402,-14.12973 -0.84688,-10.94847 -0.58845,-21.89498 -2.03874,-32.928495 -1.2186,-21.512806 -0.88714,-43.095471 -3.68732,-64.484073 -1.27097,-8.542348 3.22821,-23.237943 14.29184,-19.630546 16.65169,2.928946 33.97728,4.095153 50.44343,-0.460995 18.0684,-1.736112 36.51911,9.814472 54.03528,1.366643 16.4626,-4.885943 33.53611,0.328458 49.30243,5.297993 10.27289,-3.39015 30.201596,-4.706847 24.69273,11.920562 -3.28097,17.390948 -4.43803,35.582267 0.04397,52.87499 -1.786177,18.889931 -4.15713,37.839701 -9.43554,56.115081 -2.35285,11.91309 -20.07606,5.41092 -28.96633,6.71335 -11.58658,-2.67739 -23.74723,-2.76801 -35.60194,-1.17626 -9.93954,1.38889 -19.82188,0.92131 -29.79014,0.52029 z m 72.80027,0.1479 c -0.11803,-1.27485 -0.88299,0.83299 0,0 z M -113.7711,129.48415 c -4.60073,93.67118 -2.30036,46.83559 0,0 z"
       id="path7088-5"
       inkscape:connector-curvature="0"
       sodipodi:nodetypes="ccccccccccccccccccc" />
  </g>
</svg>
